HIERARCHY
ROOT Hips
{
	OFFSET 0.000000 0.000000 0.000000
	CHANNELS 6 Xposition Yposition Zposition Xrotation Yrotation Zrotation
	JOINT LeftUpLeg_virtual
	{
		OFFSET 0.000000 0.000000 0.000000
		CHANNELS 3 Xrotation Yrotation Zrotation
		JOINT LeftUpLeg
		{
			OFFSET 15.427100 -6.655098 0.678600
			CHANNELS 3 Xrotation Yrotation Zrotation
			JOINT LeftLeg
			{
				OFFSET 4.081073 -39.591068 13.024000
				CHANNELS 3 Xrotation Yrotation Zrotation
				JOINT LeftFoot
				{
					OFFSET -4.081074 -37.707932 -15.979700
					CHANNELS 3 Xrotation Yrotation Zrotation
					JOINT LeftToeBase
					{
						OFFSET 5.346399 -15.068900 20.645000
						CHANNELS 3 Xrotation Yrotation Zrotation
						JOINT LeftToe_End
						{
							OFFSET 2.754700 0.931300 11.300900
							CHANNELS 3 Xrotation Yrotation Zrotation
							End Site
							{
								OFFSET 0 0 0
							}
						}
					}
				}
			}
		}
	}
	JOINT RightUpLeg_virtual
	{
		OFFSET 0.000000 0.000000 0.000000
		CHANNELS 3 Xrotation Yrotation Zrotation
		JOINT RightUpLeg
		{
			OFFSET -15.569500 -6.655098 0.678600
			CHANNELS 3 Xrotation Yrotation Zrotation
			JOINT RightLeg
			{
				OFFSET -4.081825 -39.591045 13.023800
				CHANNELS 3 Xrotation Yrotation Zrotation
				JOINT RightFoot
				{
					OFFSET 4.081824 -37.707954 -15.979600
					CHANNELS 3 Xrotation Yrotation Zrotation
					JOINT RightToeBase
					{
						OFFSET -5.346400 -15.068900 20.645000
						CHANNELS 3 Xrotation Yrotation Zrotation
						JOINT RightToe_End
						{
							OFFSET -2.754700 0.931300 11.300900
							CHANNELS 3 Xrotation Yrotation Zrotation
							End Site
							{
								OFFSET 0 0 0
							}
						}
					}
				}
			}
		}
	}
	JOINT Spine_virtual
	{
		OFFSET 0.000000 0.000000 0.000000
		CHANNELS 3 Xrotation Yrotation Zrotation
		JOINT Spine
		{
			OFFSET -0.279200 12.230698 -2.892100
			CHANNELS 3 Xrotation Yrotation Zrotation
			JOINT Spine1
			{
				OFFSET -0.232667 10.192268 -1.242267
				CHANNELS 3 Xrotation Yrotation Zrotation
				JOINT Spine1_split
				{
					OFFSET -0.232667 10.192268 -1.242267
					CHANNELS 3 Xrotation Yrotation Zrotation
					JOINT Spine2
					{
						OFFSET -0.232667 10.192268 -1.242267
						CHANNELS 3 Xrotation Yrotation Zrotation
						JOINT Neck_virtual
						{
							OFFSET 0.000000 0.000000 0.000000
							CHANNELS 3 Xrotation Yrotation Zrotation
							JOINT Neck
							{
								OFFSET -0.418800 17.814194 8.416900
								CHANNELS 3 Xrotation Yrotation Zrotation
								JOINT Head
								{
									OFFSET 0.000000 7.031097 3.806800
									CHANNELS 3 Xrotation Yrotation Zrotation
									JOINT HeadTop_End
									{
										OFFSET 0.000000 24.646606 12.978600
										CHANNELS 3 Xrotation Yrotation Zrotation
										End Site
										{
											OFFSET 0 0 0
										}
									}
								}
							}
						}
						JOINT LeftShoulder_virtual
						{
							OFFSET 0.000000 0.000000 0.000000
							CHANNELS 3 Xrotation Yrotation Zrotation
							JOINT LeftShoulder
							{
								OFFSET 8.476499 7.247704 -3.868750
								CHANNELS 3 Xrotation Yrotation Zrotation
								JOINT LeftShoulder_split
								{
									OFFSET 8.476499 7.247704 -3.868750
									CHANNELS 3 Xrotation Yrotation Zrotation
									JOINT LeftArm
									{
										OFFSET 9.308998 -2.777710 0.208600
										CHANNELS 3 Xrotation Yrotation Zrotation
										JOINT LeftForeArm
										{
											OFFSET 29.972298 0.000000 0.000000
											CHANNELS 3 Xrotation Yrotation Zrotation
											JOINT LeftHand
											{
												OFFSET 26.026505 0.000000 0.000000
												CHANNELS 3 Xrotation Yrotation Zrotation
												End Site
												{
													OFFSET 0 0 0
												}
											}
										}
									}
								}
							}
						}
						JOINT RightShoulder_virtual
						{
							OFFSET 0.000000 0.000000 0.000000
							CHANNELS 3 Xrotation Yrotation Zrotation
							JOINT RightShoulder
							{
								OFFSET -7.570500 7.247704 -3.868750
								CHANNELS 3 Xrotation Yrotation Zrotation
								JOINT RightShoulder_split
								{
									OFFSET -7.570500 7.247704 -3.868750
									CHANNELS 3 Xrotation Yrotation Zrotation
									JOINT RightArm
									{
										OFFSET -9.308998 -2.777710 0.208500
										CHANNELS 3 Xrotation Yrotation Zrotation
										JOINT RightForeArm
										{
											OFFSET -29.972300 0.000000 0.000000
											CHANNELS 3 Xrotation Yrotation Zrotation
											JOINT RightHand
											{
												OFFSET -26.026505 0.000000 0.000000
												CHANNELS 3 Xrotation Yrotation Zrotation
												End Site
												{
													OFFSET 0 0 0
												}
											}
										}
									}
								}
							}
						}
					}
				}
			}
		}
	}
}
MOTION
Frames: 4
Frame Time: 0.03333333
0.624829 69.161575 -0.795273 0.000000 0.000000 0.000000 11.721466 2.979501 -1.332199 -52.689056 0.311851 6.583575 74.806219 6.649343 -1.280843 -32.354118 5.895056 -6.692303 -0.000003 0.000005 -0.000001 0.000000 0.000000 0.000000 11.721466 2.979501 -1.332199 -48.247934 -14.255101 -6.424749 74.060486 -7.289521 -4.055863 -37.765899 -10.735289 5.285568 0.000004 0.000000 -0.000000 0.000000 0.000000 0.000000 11.721466 2.979501 -1.332199 9.926266 1.519617 1.231670 7.645339 0.753230 0.067567 0.000000 0.000000 0.000000 0.000000 0.000000 0.000000 7.636951 0.840685 0.048856 -11.425863 -1.903121 7.327010 -27.420395 2.052766 -6.271738 0.000000 0.000000 0.000000 7.636951 0.840685 0.048856 3.557337 -26.212545 4.772366 0.000000 0.000000 0.000000 -62.403265 -21.804194 -66.739001 -179.999923 -70.549570 -179.999909 0.000000 0.000000 0.000000 7.636951 0.840685 0.048856 1.209605 13.189585 10.689362 0.000000 0.000000 0.000000 -58.736792 43.251227 51.659832 179.999937 73.628148 -179.999923 0.000000 0.000000 0.000000 
0.629606 69.167702 -0.786575 0.000000 0.000000 0.000000 11.764732 2.969381 -1.350052 -52.718327 0.285669 6.630906 74.807647 6.635295 -1.344500 -32.346451 5.904790 -6.668880 -0.000003 0.000003 -0.000001 0.000000 0.000000 0.000000 11.764732 2.969381 -1.350052 -48.277406 -14.266700 -6.402229 74.041778 -7.302668 -4.071097 -37.755978 -10.734617 5.299992 0.000004 0.000000 -0.000000 0.000000 0.000000 0.000000 11.764732 2.969381 -1.350052 9.909039 1.539681 1.218530 7.633172 0.769256 0.058698 0.000000 0.000000 0.000000 0.000000 0.000000 0.000000 7.624630 0.856616 0.039881 -11.444195 -1.923866 7.361600 -27.436183 1.999900 -6.276384 0.000000 0.000000 0.000000 7.624630 0.856616 0.039881 3.557336 -26.212545 4.772365 0.000000 0.000000 0.000000 -62.439581 -21.913829 -66.819556 179.999909 -70.454221 179.999909 0.000000 0.000000 0.000000 7.624630 0.856616 0.039881 1.207722 13.175775 10.734724 0.000000 0.000000 0.000000 -58.706869 43.206131 51.589645 -179.999978 73.392760 179.999978 0.000000 0.000000 0.000000 
0.637873 69.167221 -0.775299 0.000000 0.000000 0.000000 11.800504 2.954714 -1.379199 -52.746928 0.262837 6.677238 74.826396 6.615594 -1.399080 -32.346143 5.944620 -6.635711 -0.000003 0.000002 -0.000001 0.000000 0.000000 0.000000 11.800504 2.954714 -1.379199 -48.295352 -14.285919 -6.381057 74.028903 -7.313246 -4.076215 -37.752610 -10.727049 5.314810 0.000004 0.000000 -0.000000 0.000000 0.000000 0.000000 11.800504 2.954714 -1.379199 9.891099 1.571292 1.208825 7.620001 0.793060 0.049375 0.000000 0.000000 0.000000 0.000000 0.000000 0.000000 7.611136 0.880646 0.030306 -11.470300 -1.969855 7.427055 -27.400911 1.869801 -6.289242 0.000000 0.000000 0.000000 7.611136 0.880646 0.030306 3.557337 -26.212545 4.772366 0.000000 0.000000 0.000000 -62.514174 -22.042325 -66.916046 -179.999950 -70.391178 -179.999964 0.000000 0.000000 0.000000 7.611136 0.880646 0.030306 1.205950 13.146150 10.801878 0.000000 0.000000 0.000000 -58.722681 43.168571 51.544091 -179.999950 73.190586 179.999964 0.000000 0.000000 0.000000 
0.651592 69.168365 -0.761578 0.000000 0.000000 0.000000 11.837626 2.932851 -1.405689 -52.774693 0.277743 6.704897 74.839237 6.600648 -1.410384 -32.361610 5.977036 -6.604644 -0.000003 0.000004 -0.000001 0.000000 0.000000 0.000000 11.837626 2.932851 -1.405689 -48.312906 -14.297831 -6.379039 74.014443 -7.324889 -4.066506 -37.747590 -10.699889 5.335813 0.000004 0.000000 -0.000000 0.000000 0.000000 0.000000 11.837626 2.932851 -1.405689 9.874606 1.609056 1.196180 7.606531 0.822611 0.040046 0.000000 0.000000 0.000000 0.000000 0.000000 0.000000 7.597266 0.910606 0.020586 -11.512454 -2.020959 7.497547 -27.383007 1.723012 -6.301876 0.000000 0.000000 0.000000 7.597266 0.910606 0.020586 3.557335 -26.212545 4.772365 0.000000 0.000000 0.000000 -62.621005 -22.195931 -67.031244 -179.999991 -70.314059 -180.000005 0.000000 0.000000 0.000000 7.597266 0.910606 0.020586 1.205933 13.106008 10.860522 0.000000 0.000000 0.000000 -58.781926 43.109108 51.531236 -179.999855 72.944460 179.999868 0.000000 0.000000 0.000000 
